<?xml version="1.0" encoding="utf-8"?>
<!-- Generator: Adobe Illustrator 22.1.0, SVG Export Plug-In . SVG Version: 6.00 Build 0)  -->
<svg version="1.1"
	 id="svg2" xmlns:cc="http://creativecommons.org/ns#" xmlns:dc="http://purl.org/dc/elements/1.1/" xmlns:inkscape="http://www.inkscape.org/namespaces/inkscape" xmlns:ns1="http://sozi.baierouge.fr" xmlns:rdf="http://www.w3.org/1999/02/22-rdf-syntax-ns#" xmlns:sodipodi="http://sodipodi.sourceforge.net/DTD/sodipodi-0.dtd" xmlns:svg="http://www.w3.org/2000/svg"
	 xmlns="http://www.w3.org/2000/svg" xmlns:xlink="http://www.w3.org/1999/xlink" x="0px" y="0px" viewBox="0 0 200 200"
	 style="enable-background:new 0 0 200 200;" xml:space="preserve">
<style type="text/css">
	.st0{fill:#CECECE;}
	.st1{fill:#3A3A3A;}
</style>
<rect x="-1.3" y="-1.3" class="st0" width="202.7" height="202.7"/>
<g id="layer1" transform="translate(-368.08 -598.61)">
	<g>
		<path id="path2996_8_" class="st1" d="M447.3,783.8c-13.3-1.1-30.3-4-31.7-5.4c-1-1-1-2.7,0.1-10.7c1.5-10.4,4.5-42.7,5.5-57.6
			l0.6-9.4l-8.8-0.5c-9.2-0.5-18.4-3.3-22.6-6.9c-1.9-1.6-1.9-1.8-0.5-7.3c1.2-4.6,13.2-40,17.8-52.2c0.9-2.5,1.8-3.2,4.4-3.8
			c6.3-1.3,29.4-10.6,31.1-12.5c2.6-3,8.1-4.3,21.4-4.8c13.9-0.5,21.9,0.5,25.3,3.3c3,2.4,7.7,4.5,22.1,9.8c6.7,2.5,13,4.9,14,5.4
			c1.5,0.7,4.1,7.2,12.3,30.3c11.9,33.8,11.9,30.7,0.6,35.4c-5.6,2.3-8.3,2.9-15.6,3.3l-8.8,0.4l0.6,9.4c1.1,17.1,3.2,40.3,5,53.8
			c1.4,11,1.5,13.5,0.5,14.5c-1.5,1.5-18.2,4.2-33.4,5.4C473.8,784.9,460.9,784.9,447.3,783.8L447.3,783.8z M488.1,780.3
			c13.4-1.1,28.7-3.5,29.4-4.5c0.3-0.5,0-4.9-0.7-9.9c-1.9-15-3.6-33.6-5.2-56.7l-1.5-21.8l2.4-15.9c2.4-15.7,3.4-19.1,5.1-17.3
			c0.6,0.6,0.1,5.6-1.2,14.1c-2,13.2-2,13.3-0.4,21.1l1.6,7.8l7.4-0.5c5.7-0.4,8.7-1.1,13.2-3.2c3.2-1.5,5.8-3.3,5.8-3.9
			c0-0.7-3.8-12-8.5-25.1c-4.7-13.2-8.7-25-9-26.3c-0.3-1.3-0.9-2.8-1.5-3.2c-0.6-0.4-6.6-2.9-13.4-5.5c-6.8-2.6-14.6-5.7-17.3-6.8
			c-4.6-2-4.9-2-6-0.6c-0.6,0.8-1.1,2.6-1.1,4c0,4.5-8.9,9.7-17.8,10.3c-4.7,0.3-6.7,0-10.2-1.5c-5.3-2.3-7.5-4.3-6.9-5.9
			c0.7-1.9-5.1-8.3-6.8-7.5c-0.8,0.4-8.7,3.5-17.7,6.9l-16.4,6.2l-1.5,4.3c-0.9,2.4-5.2,14.5-9.6,26.8c-4.4,12.4-8.1,23.1-8.1,23.8
			c0,0.7,2.5,2.5,5.8,4c4.5,2.1,7.5,2.8,13.2,3.2l7.4,0.5l1.6-7.7c1.6-7.6,1.6-7.8-0.4-21c-1.3-8.7-1.7-13.7-1.1-14.3
			c1.7-1.7,2.7,1.6,5.1,17.6l2.4,16.2l-1.4,20.7c-1.5,21.9-4.4,53-5.8,61.6c-0.5,2.8-0.6,5.4-0.4,5.7c0.5,0.8,16.8,3.3,28,4.3
			C458.5,781.3,476.3,781.3,488.1,780.3L488.1,780.3z M477.5,627.1c6.4-3.2,9.9-8.4,6.6-9.6c-5.3-2-31.2-1.2-33.5,1
			c-1.8,1.8,5.4,8,11.7,10.1C465.7,629.6,474.1,628.8,477.5,627.1L477.5,627.1z"/>
	</g>
</g>
<g>
	<path class="st1" d="M88.1,70c0-1.5,0.5-3,1.4-4.5c1-1.5,2.3-2.8,4.2-3.8c1.8-1,4-1.5,6.4-1.5c2.3,0,4.3,0.4,6,1.3
		c1.7,0.8,3.1,2,4,3.4c0.9,1.4,1.4,3,1.4,4.7c0,1.3-0.3,2.5-0.8,3.5c-0.5,1-1.2,1.9-1.9,2.6s-2.1,1.9-4,3.7c-0.5,0.5-1,0.9-1.3,1.3
		c-0.3,0.4-0.6,0.7-0.7,1c-0.2,0.3-0.3,0.6-0.4,0.9c-0.1,0.3-0.2,0.8-0.4,1.6c-0.3,1.6-1.2,2.4-2.8,2.4c-0.8,0-1.5-0.3-2-0.8
		s-0.8-1.3-0.8-2.4c0-1.3,0.2-2.4,0.6-3.4c0.4-1,0.9-1.8,1.6-2.5s1.6-1.6,2.7-2.6c1-0.9,1.7-1.5,2.2-2c0.4-0.4,0.8-0.9,1.1-1.5
		c0.3-0.5,0.5-1.1,0.5-1.8c0-1.2-0.5-2.3-1.4-3.2c-0.9-0.9-2.1-1.3-3.6-1.3c-1.7,0-3,0.4-3.8,1.3c-0.8,0.9-1.5,2.1-2.1,3.8
		c-0.5,1.8-1.5,2.6-3,2.6c-0.9,0-1.6-0.3-2.2-0.9C88.4,71.4,88.1,70.7,88.1,70z M99.6,95.6c-1,0-1.8-0.3-2.5-0.9
		c-0.7-0.6-1.1-1.5-1.1-2.6c0-1,0.3-1.8,1-2.5c0.7-0.7,1.5-1,2.5-1c1,0,1.8,0.3,2.5,1c0.7,0.7,1,1.5,1,2.5c0,1.1-0.4,2-1.1,2.6
		C101.3,95.3,100.5,95.6,99.6,95.6z"/>
	<path class="st1" d="M81.3,103.1v15.4h-3.5l0-10.4l-1.4,10.4h-2.5l-1.5-10.2l0,10.2h-3.5v-15.4h5.2c0.2,0.9,0.3,2,0.5,3.3l0.6,3.9
		l0.9-7.2H81.3z"/>
	<path class="st1" d="M86.7,103.1v2h-4v-2H86.7z M86.7,105.9v12.7h-4v-12.7H86.7z"/>
	<path class="st1" d="M96,109.9h-3.4v-0.7c0-0.6,0-1-0.1-1.1c-0.1-0.2-0.2-0.2-0.5-0.2c-0.2,0-0.4,0.1-0.5,0.2
		c-0.1,0.1-0.2,0.4-0.2,0.6c0,0.4,0,0.7,0.1,0.9c0.1,0.2,0.2,0.4,0.5,0.6c0.3,0.2,0.8,0.5,1.7,0.9c1.1,0.5,1.9,1.1,2.2,1.5
		s0.5,1.2,0.5,2.1c0,1-0.1,1.8-0.4,2.3s-0.7,0.9-1.3,1.2c-0.6,0.3-1.4,0.4-2.3,0.4c-1,0-1.8-0.2-2.5-0.5c-0.7-0.3-1.2-0.7-1.4-1.2
		c-0.3-0.5-0.4-1.3-0.4-2.4v-0.6h3.4v0.8c0,0.7,0,1.1,0.1,1.3c0.1,0.2,0.3,0.3,0.5,0.3c0.3,0,0.5-0.1,0.6-0.2
		c0.1-0.1,0.2-0.4,0.2-0.9c0-0.6-0.1-1-0.2-1.1c-0.1-0.2-0.9-0.6-2.2-1.4c-1.1-0.6-1.8-1.2-2.1-1.7s-0.4-1.1-0.4-1.8
		c0-1,0.1-1.8,0.4-2.2c0.3-0.5,0.7-0.9,1.4-1.1c0.6-0.3,1.4-0.4,2.2-0.4c0.8,0,1.6,0.1,2.1,0.3s1,0.5,1.4,0.8c0.3,0.3,0.5,0.7,0.6,1
		c0.1,0.3,0.1,0.8,0.1,1.4V109.9z"/>
	<path class="st1" d="M105.2,109.9h-3.4v-0.7c0-0.6,0-1-0.1-1.1c-0.1-0.2-0.2-0.2-0.5-0.2c-0.2,0-0.4,0.1-0.5,0.2
		c-0.1,0.1-0.2,0.4-0.2,0.6c0,0.4,0,0.7,0.1,0.9c0.1,0.2,0.2,0.4,0.5,0.6c0.3,0.2,0.8,0.5,1.7,0.9c1.1,0.5,1.9,1.1,2.2,1.5
		s0.5,1.2,0.5,2.1c0,1-0.1,1.8-0.4,2.3c-0.3,0.5-0.7,0.9-1.3,1.2c-0.6,0.3-1.4,0.4-2.3,0.4c-1,0-1.8-0.2-2.5-0.5
		c-0.7-0.3-1.2-0.7-1.4-1.2c-0.3-0.5-0.4-1.3-0.4-2.4v-0.6h3.4v0.8c0,0.7,0,1.1,0.1,1.3c0.1,0.2,0.3,0.3,0.5,0.3
		c0.3,0,0.5-0.1,0.6-0.2s0.2-0.4,0.2-0.9c0-0.6-0.1-1-0.2-1.1c-0.1-0.2-0.9-0.6-2.2-1.4c-1.1-0.6-1.8-1.2-2.1-1.7s-0.4-1.1-0.4-1.8
		c0-1,0.1-1.8,0.4-2.2c0.3-0.5,0.7-0.9,1.4-1.1c0.6-0.3,1.4-0.4,2.2-0.4c0.8,0,1.6,0.1,2.1,0.3c0.6,0.2,1,0.5,1.4,0.8
		c0.3,0.3,0.5,0.7,0.6,1c0.1,0.3,0.1,0.8,0.1,1.4V109.9z"/>
	<path class="st1" d="M110.5,103.1v2h-4v-2H110.5z M110.5,105.9v12.7h-4v-12.7H110.5z"/>
	<path class="st1" d="M115.8,105.9l-0.1,1.2c0.3-0.5,0.6-0.8,1-1c0.4-0.2,0.9-0.3,1.4-0.3c0.7,0,1.2,0.2,1.6,0.5s0.7,0.7,0.8,1.2
		c0.1,0.5,0.2,1.3,0.2,2.4v8.9h-3.9v-8.8c0-0.9,0-1.4-0.1-1.6s-0.2-0.3-0.5-0.3c-0.3,0-0.4,0.1-0.5,0.3s-0.1,0.8-0.1,1.8v8.6h-3.9
		v-12.7H115.8z"/>
	<path class="st1" d="M130.8,105.9v9.8c0,1.3,0,2.2-0.1,2.6s-0.3,0.8-0.6,1.2c-0.4,0.4-0.9,0.8-1.5,1c-0.7,0.2-1.5,0.3-2.5,0.3
		c-1.2,0-2.2-0.2-3-0.6c-0.7-0.4-1.1-1.2-1.2-2.5h3.7c0,0.6,0.2,0.8,0.6,0.8c0.3,0,0.5-0.1,0.6-0.3c0.1-0.2,0.1-0.5,0.1-1.1v-1
		c-0.3,0.3-0.7,0.5-1,0.7c-0.4,0.2-0.7,0.2-1.1,0.2c-0.7,0-1.3-0.1-1.7-0.4s-0.8-0.6-0.9-1.1c-0.2-0.5-0.2-1.1-0.2-1.9V109
		c0-1.2,0.2-2.1,0.6-2.6c0.4-0.5,1.1-0.8,2-0.8c0.5,0,0.9,0.1,1.3,0.3c0.4,0.2,0.8,0.5,1.1,0.9l0.3-1H130.8z M127,109.2
		c0-0.6,0-0.9-0.1-1.1c-0.1-0.2-0.2-0.2-0.4-0.2c-0.2,0-0.4,0.1-0.5,0.3c-0.1,0.2-0.1,0.5-0.1,1.1v4.3c0,0.6,0,0.9,0.1,1.1
		c0.1,0.2,0.2,0.3,0.4,0.3c0.3,0,0.4-0.1,0.5-0.3c0.1-0.2,0.1-0.7,0.1-1.4V109.2z"/>
	<path class="st1" d="M79.3,126.5V142h-4v-15.4H79.3z"/>
	<path class="st1" d="M84.6,129.3l-0.1,1.2c0.3-0.5,0.7-0.8,1.1-1.1s0.9-0.4,1.4-0.4c1,0,1.8,0.5,2.4,1.4c0.3-0.5,0.7-0.8,1.1-1.1
		c0.4-0.2,0.9-0.4,1.4-0.4c0.7,0,1.2,0.2,1.6,0.5c0.4,0.3,0.7,0.7,0.8,1.2c0.1,0.5,0.2,1.2,0.2,2.2v9h-3.7v-8.3c0-1.1,0-1.8-0.1-2
		c-0.1-0.3-0.2-0.4-0.5-0.4c-0.3,0-0.4,0.1-0.5,0.4c-0.1,0.3-0.1,0.9-0.1,2v8.3h-3.7v-8c0-1.2,0-2-0.1-2.2c-0.1-0.2-0.2-0.4-0.5-0.4
		c-0.2,0-0.3,0.1-0.4,0.2c-0.1,0.1-0.2,0.3-0.2,0.5c0,0.2,0,0.6,0,1.2v8.8h-3.7v-12.7H84.6z"/>
	<path class="st1" d="M99.3,134.2h-3.6v-0.8c0-1,0.1-1.7,0.3-2.3c0.2-0.5,0.7-1,1.4-1.4s1.6-0.6,2.7-0.6c1.3,0,2.3,0.2,2.9,0.7
		c0.7,0.5,1.1,1,1.2,1.7s0.2,2.1,0.2,4.1v6.4h-3.7v-1.1c-0.2,0.5-0.5,0.8-0.9,1s-0.8,0.3-1.3,0.3c-0.7,0-1.3-0.2-1.9-0.6
		c-0.6-0.4-0.8-1.2-0.8-2.5v-1c0-0.9,0.1-1.6,0.4-1.9c0.3-0.3,1-0.7,2.2-1.2c1.3-0.5,1.9-0.8,2-1c0.1-0.2,0.1-0.5,0.1-1
		c0-0.7,0-1.1-0.1-1.3c-0.1-0.2-0.3-0.3-0.5-0.3c-0.3,0-0.4,0.1-0.5,0.3c-0.1,0.2-0.1,0.6-0.1,1.3V134.2z M100.5,136
		c-0.6,0.5-1,0.8-1.1,1.1c-0.1,0.3-0.1,0.7-0.1,1.3c0,0.7,0,1.1,0.1,1.3c0.1,0.2,0.3,0.3,0.5,0.3c0.2,0,0.4-0.1,0.5-0.2
		s0.1-0.5,0.1-1.2V136z"/>
	<path class="st1" d="M114.4,129.3v9.8c0,1.3,0,2.2-0.1,2.6s-0.3,0.8-0.6,1.2c-0.4,0.4-0.9,0.8-1.5,1c-0.7,0.2-1.5,0.3-2.5,0.3
		c-1.2,0-2.2-0.2-3-0.6c-0.7-0.4-1.1-1.2-1.2-2.5h3.7c0,0.6,0.2,0.8,0.6,0.8c0.3,0,0.5-0.1,0.6-0.3c0.1-0.2,0.1-0.5,0.1-1.1v-1
		c-0.3,0.3-0.7,0.5-1,0.7c-0.4,0.2-0.7,0.2-1.1,0.2c-0.7,0-1.3-0.1-1.7-0.4s-0.8-0.6-0.9-1.1c-0.2-0.5-0.2-1.1-0.2-1.9v-4.6
		c0-1.2,0.2-2.1,0.6-2.6c0.4-0.5,1.1-0.8,2-0.8c0.5,0,0.9,0.1,1.3,0.3c0.4,0.2,0.8,0.5,1.1,0.9l0.3-1H114.4z M110.6,132.7
		c0-0.6,0-0.9-0.1-1.1c-0.1-0.2-0.2-0.2-0.4-0.2c-0.2,0-0.4,0.1-0.5,0.3c-0.1,0.2-0.1,0.5-0.1,1.1v4.3c0,0.6,0,0.9,0.1,1.1
		c0.1,0.2,0.2,0.3,0.4,0.3c0.3,0,0.4-0.1,0.5-0.3c0.1-0.2,0.1-0.7,0.1-1.4V132.7z"/>
	<path class="st1" d="M124.5,135.9h-5v2.7c0,0.6,0,0.9,0.1,1.1c0.1,0.2,0.2,0.2,0.5,0.2c0.3,0,0.5-0.1,0.6-0.3
		c0.1-0.2,0.1-0.6,0.1-1.3v-1.7h3.7v0.9c0,0.8,0,1.4-0.1,1.8c-0.1,0.4-0.3,0.9-0.7,1.3s-0.8,0.8-1.4,1.1s-1.3,0.4-2.1,0.4
		c-0.8,0-1.5-0.1-2.2-0.4c-0.6-0.2-1.1-0.6-1.5-1s-0.6-0.9-0.7-1.4c-0.1-0.5-0.2-1.2-0.2-2.2v-3.7c0-1.1,0.1-2,0.4-2.6
		c0.3-0.6,0.8-1.1,1.5-1.5c0.7-0.3,1.5-0.5,2.3-0.5c1.1,0,2,0.2,2.7,0.6c0.7,0.4,1.2,1,1.5,1.6c0.3,0.7,0.4,1.6,0.4,2.9V135.9z
		 M120.7,133.8v-0.9c0-0.7,0-1.1-0.1-1.3c-0.1-0.2-0.2-0.3-0.4-0.3c-0.3,0-0.4,0.1-0.5,0.2s-0.1,0.6-0.1,1.3v0.9H120.7z"/>
</g>
</svg>
